<svg xmlns="http://www.w3.org/2000/svg" viewBox="0 0 100 100" width="256" height="256">
  <defs>
    <clipPath id="frame">
      <rect width="100" height="100" rx="22"/>
    </clipPath>
  </defs>
  <rect width="100" height="100" rx="22" fill="#F0E8DC"/>
  <g clip-path="url(#frame)">
    <circle cx="40" cy="50" r="38" fill="#2D3A5C"/>
    <circle cx="62" cy="50" r="38" fill="#F0E8DC"/>
    <circle cx="62" cy="50" r="34" fill="#D4854A"/>
    <path d="M63.50,50.00 L63.59,50.21 L63.66,50.43 L63.72,50.66 L63.77,50.90 L63.80,51.15 L63.81,51.41 L63.81,51.67 L63.79,51.93 L63.75,52.20 L63.69,52.47 L63.61,52.73 L63.52,53.00 L63.40,53.27 L63.27,53.53 L63.11,53.79 L62.94,54.05 L62.75,54.29 L62.53,54.53 L62.30,54.75 L62.06,54.97 L61.79,55.17 L61.51,55.35 L61.21,55.52 L60.90,55.68 L60.57,55.82 L60.23,55.93 L59.88,56.03 L59.52,56.11 L59.15,56.16 L58.77,56.19 L58.38,56.20 L57.99,56.18 L57.60,56.14 L57.20,56.07 L56.80,55.98 L56.41,55.86 L56.02,55.72 L55.63,55.55 L55.25,55.35 L54.87,55.13 L54.51,54.88 L54.16,54.60 L53.82,54.31 L53.50,53.98 L53.19,53.64 L52.91,53.27 L52.64,52.88 L52.39,52.47 L52.17,52.04 L51.97,51.60 L51.80,51.13 L51.65,50.66 L51.53,50.17 L51.44,49.66 L51.39,49.15 L51.36,48.63 L51.36,48.10 L51.40,47.57 L51.47,47.04 L51.57,46.51 L51.71,45.98 L51.87,45.45 L52.08,44.93 L52.31,44.42 L52.58,43.91 L52.89,43.42 L53.22,42.95 L53.59,42.49 L53.98,42.05 L54.41,41.63 L54.86,41.24 L55.35,40.87 L55.85,40.52 L56.39,40.21 L56.94,39.92 L57.52,39.67 L58.12,39.45 L58.73,39.26 L59.36,39.11 L60.00,39.00 L60.65,38.93 L61.31,38.89 L61.98,38.89 L62.66,38.94 L63.33,39.03 L64.00,39.15 L64.67,39.32 L65.33,39.53 L65.99,39.78 L66.63,40.07 L67.26,40.41 L67.87,40.78 L68.47,41.19 L69.04,41.64 L69.59,42.13 L70.11,42.65 L70.61,43.21 L71.07,43.80 L71.50,44.42 L71.89,45.07 L72.25,45.75 L72.57,46.45 L72.85,47.18 L73.09,47.93 L73.28,48.69 L73.43,49.47 L73.53,50.27 L73.58,51.07 L73.59,51.88 L73.55,52.69 L73.46,53.51 L73.31,54.33 L73.12,55.14 L72.88,55.94 L72.59,56.73 L72.26,57.51 L71.87,58.27 L71.44,59.02 L70.96,59.74 L70.43,60.43 L69.86,61.10 L69.25,61.73 L68.59,62.33 L67.90,62.90 L67.17,63.42 L66.41,63.91 L65.62,64.35 L64.79,64.74 L63.94,65.09 L63.06,65.39 L62.16,65.63 L61.25,65.83 L60.31,65.97 L59.37,66.05 L58.42,66.08 L57.46,66.05 L56.50,65.96 L55.54,65.82 L54.58,65.62 L53.64,65.36 L52.70,65.04 L51.79,64.67 L50.89,64.24 L50.01,63.75 L49.16,63.21 L48.33,62.62 L47.54,61.98 L46.79,61.28 L46.07,60.54 L45.40,59.76 L44.77,58.93 L44.18,58.06 L43.65,57.15 L43.17,56.21 L42.75,55.23 L42.38,54.23 L42.06,53.20 L41.81,52.15 L41.63,51.08 L41.50,50.00 L41.44,48.91 L41.44,47.80 L41.51,46.70 L41.65,45.59 L41.85,44.49 L42.12,43.40 L42.45,42.32 L42.85,41.26 L43.31,40.22 L43.84,39.20 L44.43,38.21 L45.08,37.25 L45.79,36.33 L46.55,35.45 L47.37,34.61 L48.24,33.82 L49.17,33.08 L50.14,32.39 L51.15,31.75 L52.20,31.18 L53.29,30.66 L54.42,30.21 L55.57,29.82 L56.75,29.51 L57.96,29.26 L59.18,29.08 L60.41,28.97 L61.66,28.94 L62.91,28.98 L64.16,29.10 L65.40,29.29 L66.64,29.55 L67.87,29.89 L69.08,30.30 L70.27,30.79 L71.43,31.35 L72.56,31.98 L73.66,32.67 L74.72,33.44 L75.73,34.27 L76.70,35.16 L77.62,36.11 L78.48,37.12 L79.29,38.18 L80.04,39.29 L80.72,40.45 L81.33,41.65 L81.87,42.89 L82.35,44.17 L82.74,45.48 L83.06,46.81 L83.30,48.17 L83.46,49.54 L83.54,50.93 L83.54,52.32 L83.46,53.72 L83.29,55.11 L83.04,56.50 L82.70,57.87 L82.29,59.23 L81.79,60.57 L81.21,61.88 L80.56,63.16 L79.82,64.40 L79.01,65.60 L78.13,66.76 L77.18,67.86 L76.16,68.92 L75.07,69.91 L73.92,70.84 L72.72,71.70 L71.46,72.50 L70.16,73.22 L68.80,73.87 L67.41,74.43 L65.98,74.92 L64.52,75.32 L63.03,75.63 L61.53,75.86 L60.00,76.00" fill="none" stroke="#F0E8DC" stroke-width="3.8" stroke-linecap="round" stroke-linejoin="round"/>
  </g>
</svg>